<svg xmlns="http://www.w3.org/2000/svg" width="802" height="2260" viewBox="0 0 802 2260">
<style>
  .rr-frame { fill: none; stroke: none; }
  .rr-line { fill: none; stroke: #444; stroke-width: 1.6; }
  .rr-rule { fill: #eef3fb; stroke: #4078f2; stroke-width: 1.4; }
  .rr-term { fill: #f3f7ee; stroke: #50a14f; stroke-width: 1.4; }
  .rr-text { font-family: ui-monospace, "DejaVu Sans Mono", monospace; font-size: 13px; fill: #222;
             text-anchor: middle; dominant-baseline: central; }
  .rr-title { font-family: ui-monospace, "DejaVu Sans Mono", monospace; font-size: 15px;
              font-weight: bold; fill: #111; }
  .rr-note { font-family: ui-monospace, "DejaVu Sans Mono", monospace; font-size: 11px; fill: #888;
             text-anchor: middle; }
</style>
<rect width="802" height="2260" fill="#ffffff"/>
<text class="rr-title" x="16.0" y="30.0">?start</text>
<path class="rr-line" d="M 16.0 58.0 L 26.0 58.0"/>
<rect class="rr-rule" x="26.0" y="46.0" width="60.5" height="24.0" rx="4.0"/>
<text class="rr-text" x="56.2" y="58.0">lines</text>
<path class="rr-line" d="M 86.5 58.0 L 786.5 58.0"/>
<circle class="rr-line" cx="16.0" cy="58.0" r="3"/>
<circle class="rr-line" cx="786.5" cy="58.0" r="3"/>
<text class="rr-title" x="16.0" y="110.0">lines</text>
<path class="rr-line" d="M 16.0 138.0 L 26.0 138.0"/>
<path class="rr-line" d="M 26.0 138.0 L 46.0 138.0"/>
<path class="rr-line" d="M 46.0 138.0 L 56.0 138.0"/>
<rect class="rr-rule" x="56.0" y="126.0" width="53.2" height="24.0" rx="4.0"/>
<text class="rr-text" x="82.6" y="138.0">line</text>
<path class="rr-line" d="M 109.2 138.0 L 119.2 138.0"/>
<path class="rr-line" d="M 109.2 138.0 a 10.0 10.0 0 0 1 10.0 10.0 v 12.0 a 10.0 10.0 0 0 1 -10.0 10.0 h -33.2 a 10.0 10.0 0 0 1 -10.0 -10.0 v -12.0 a 10.0 10.0 0 0 1 10.0 -10.0"/>
<path class="rr-line" d="M 119.2 138.0 L 139.2 138.0"/>
<path class="rr-line" d="M 26.0 138.0 a 10.0 10.0 0 0 1 10.0 10.0 v 38.0 a 10.0 10.0 0 0 0 10.0 10.0"/>
<path class="rr-line" d="M 119.2 196.0 a 10.0 10.0 0 0 0 10.0 -10.0 v -38.0 a 10.0 10.0 0 0 1 10.0 -10.0"/>
<path class="rr-line" d="M 46.0 196.0 L 65.6 196.0"/>
<path class="rr-line" d="M 65.6 196.0 L 99.6 196.0"/>
<path class="rr-line" d="M 99.6 196.0 L 119.2 196.0"/>
<path class="rr-line" d="M 139.2 138.0 L 786.5 138.0"/>
<circle class="rr-line" cx="16.0" cy="138.0" r="3"/>
<circle class="rr-line" cx="786.5" cy="138.0" r="3"/>
<text class="rr-title" x="16.0" y="248.0">line</text>
<path class="rr-line" d="M 16.0 276.0 L 26.0 276.0"/>
<path class="rr-line" d="M 26.0 276.0 L 57.0 276.0"/>
<rect class="rr-rule" x="57.0" y="264.0" width="67.8" height="24.0" rx="4.0"/>
<text class="rr-text" x="90.8" y="276.0">entity</text>
<path class="rr-line" d="M 124.8 276.0 L 155.7 276.0"/>
<path class="rr-line" d="M 26.0 276.0 a 10.0 10.0 0 0 1 10.0 10.0 v 14.0 a 10.0 10.0 0 0 0 10.0 10.0"/>
<path class="rr-line" d="M 135.7 310.0 a 10.0 10.0 0 0 0 10.0 -10.0 v -14.0 a 10.0 10.0 0 0 1 10.0 -10.0"/>
<path class="rr-line" d="M 46.0 310.0 L 57.0 310.0"/>
<rect class="rr-rule" x="57.0" y="298.0" width="67.8" height="24.0" rx="4.0"/>
<text class="rr-text" x="90.8" y="310.0">attrib</text>
<path class="rr-line" d="M 124.8 310.0 L 135.7 310.0"/>
<path class="rr-line" d="M 26.0 276.0 a 10.0 10.0 0 0 1 10.0 10.0 v 48.0 a 10.0 10.0 0 0 0 10.0 10.0"/>
<path class="rr-line" d="M 135.7 344.0 a 10.0 10.0 0 0 0 10.0 -10.0 v -48.0 a 10.0 10.0 0 0 1 10.0 -10.0"/>
<path class="rr-line" d="M 46.0 344.0 L 60.6 344.0"/>
<rect class="rr-rule" x="60.6" y="332.0" width="60.5" height="24.0" rx="4.0"/>
<text class="rr-text" x="90.8" y="344.0">atype</text>
<path class="rr-line" d="M 121.1 344.0 L 135.7 344.0"/>
<path class="rr-line" d="M 26.0 276.0 a 10.0 10.0 0 0 1 10.0 10.0 v 82.0 a 10.0 10.0 0 0 0 10.0 10.0"/>
<path class="rr-line" d="M 135.7 378.0 a 10.0 10.0 0 0 0 10.0 -10.0 v -82.0 a 10.0 10.0 0 0 1 10.0 -10.0"/>
<path class="rr-line" d="M 46.0 378.0 L 46.0 378.0"/>
<rect class="rr-rule" x="46.0" y="366.0" width="89.7" height="24.0" rx="4.0"/>
<text class="rr-text" x="90.8" y="378.0">validator</text>
<path class="rr-line" d="M 135.7 378.0 L 135.7 378.0"/>
<path class="rr-line" d="M 155.7 276.0 L 786.5 276.0"/>
<circle class="rr-line" cx="16.0" cy="276.0" r="3"/>
<circle class="rr-line" cx="786.5" cy="276.0" r="3"/>
<text class="rr-title" x="16.0" y="430.0">entity</text>
<path class="rr-line" d="M 16.0 458.0 L 26.0 458.0"/>
<rect class="rr-term" x="26.0" y="446.0" width="45.9" height="24.0" rx="12.0"/>
<text class="rr-text" x="49.0" y="458.0">"E"</text>
<path class="rr-line" d="M 71.9 458.0 L 81.9 458.0"/>
<rect class="rr-term" x="81.9" y="446.0" width="45.9" height="24.0" rx="12.0"/>
<text class="rr-text" x="104.9" y="458.0">":"</text>
<path class="rr-line" d="M 127.8 458.0 L 137.8 458.0"/>
<rect class="rr-rule" x="137.8" y="446.0" width="53.2" height="24.0" rx="4.0"/>
<text class="rr-text" x="164.4" y="458.0">name</text>
<path class="rr-line" d="M 191.0 458.0 L 201.0 458.0"/>
<path class="rr-line" d="M 201.0 458.0 L 221.0 458.0"/>
<rect class="rr-term" x="221.0" y="446.0" width="45.9" height="24.0" rx="12.0"/>
<text class="rr-text" x="243.9" y="458.0">"("</text>
<path class="rr-line" d="M 266.9 458.0 L 276.9 458.0"/>
<path class="rr-line" d="M 276.9 458.0 L 296.9 458.0"/>
<rect class="rr-rule" x="296.9" y="446.0" width="111.6" height="24.0" rx="4.0"/>
<text class="rr-text" x="352.7" y="458.0">entity_names</text>
<path class="rr-line" d="M 408.5 458.0 L 428.5 458.0"/>
<path class="rr-line" d="M 276.9 458.0 a 10.0 10.0 0 0 1 10.0 10.0 v 14.0 a 10.0 10.0 0 0 0 10.0 10.0"/>
<path class="rr-line" d="M 408.5 492.0 a 10.0 10.0 0 0 0 10.0 -10.0 v -14.0 a 10.0 10.0 0 0 1 10.0 -10.0"/>
<path class="rr-line" d="M 296.9 492.0 L 335.7 492.0"/>
<path class="rr-line" d="M 335.7 492.0 L 369.7 492.0"/>
<path class="rr-line" d="M 369.7 492.0 L 408.5 492.0"/>
<path class="rr-line" d="M 428.5 458.0 L 438.5 458.0"/>
<rect class="rr-term" x="438.5" y="446.0" width="45.9" height="24.0" rx="12.0"/>
<text class="rr-text" x="461.4" y="458.0">")"</text>
<path class="rr-line" d="M 484.4 458.0 L 504.4 458.0"/>
<path class="rr-line" d="M 201.0 458.0 a 10.0 10.0 0 0 1 10.0 10.0 v 48.0 a 10.0 10.0 0 0 0 10.0 10.0"/>
<path class="rr-line" d="M 484.4 526.0 a 10.0 10.0 0 0 0 10.0 -10.0 v -48.0 a 10.0 10.0 0 0 1 10.0 -10.0"/>
<path class="rr-line" d="M 221.0 526.0 L 335.7 526.0"/>
<path class="rr-line" d="M 335.7 526.0 L 369.7 526.0"/>
<path class="rr-line" d="M 369.7 526.0 L 484.4 526.0"/>
<path class="rr-line" d="M 504.4 458.0 L 514.4 458.0"/>
<path class="rr-line" d="M 514.4 458.0 L 534.4 458.0"/>
<rect class="rr-rule" x="534.4" y="446.0" width="75.1" height="24.0" rx="4.0"/>
<text class="rr-text" x="571.9" y="458.0">attribs</text>
<path class="rr-line" d="M 609.5 458.0 L 629.5 458.0"/>
<path class="rr-line" d="M 514.4 458.0 a 10.0 10.0 0 0 1 10.0 10.0 v 14.0 a 10.0 10.0 0 0 0 10.0 10.0"/>
<path class="rr-line" d="M 609.5 492.0 a 10.0 10.0 0 0 0 10.0 -10.0 v -14.0 a 10.0 10.0 0 0 1 10.0 -10.0"/>
<path class="rr-line" d="M 534.4 492.0 L 554.9 492.0"/>
<path class="rr-line" d="M 554.9 492.0 L 588.9 492.0"/>
<path class="rr-line" d="M 588.9 492.0 L 609.5 492.0"/>
<path class="rr-line" d="M 629.5 458.0 L 639.5 458.0"/>
<path class="rr-line" d="M 639.5 458.0 L 659.5 458.0"/>
<rect class="rr-rule" x="659.5" y="446.0" width="97.0" height="24.0" rx="4.0"/>
<text class="rr-text" x="708.0" y="458.0">validators</text>
<path class="rr-line" d="M 756.5 458.0 L 776.5 458.0"/>
<path class="rr-line" d="M 639.5 458.0 a 10.0 10.0 0 0 1 10.0 10.0 v 14.0 a 10.0 10.0 0 0 0 10.0 10.0"/>
<path class="rr-line" d="M 756.5 492.0 a 10.0 10.0 0 0 0 10.0 -10.0 v -14.0 a 10.0 10.0 0 0 1 10.0 -10.0"/>
<path class="rr-line" d="M 659.5 492.0 L 691.0 492.0"/>
<path class="rr-line" d="M 691.0 492.0 L 725.0 492.0"/>
<path class="rr-line" d="M 725.0 492.0 L 756.5 492.0"/>
<path class="rr-line" d="M 776.5 458.0 L 786.5 458.0"/>
<circle class="rr-line" cx="16.0" cy="458.0" r="3"/>
<circle class="rr-line" cx="786.5" cy="458.0" r="3"/>
<text class="rr-title" x="16.0" y="578.0">entity_names</text>
<path class="rr-line" d="M 16.0 606.0 L 26.0 606.0"/>
<rect class="rr-rule" x="26.0" y="594.0" width="104.3" height="24.0" rx="4.0"/>
<text class="rr-text" x="78.2" y="606.0">entity_name</text>
<path class="rr-line" d="M 130.3 606.0 L 140.3 606.0"/>
<path class="rr-line" d="M 140.3 606.0 L 160.3 606.0"/>
<path class="rr-line" d="M 160.3 606.0 L 170.3 606.0"/>
<rect class="rr-term" x="170.3" y="594.0" width="45.9" height="24.0" rx="12.0"/>
<text class="rr-text" x="193.2" y="606.0">","</text>
<path class="rr-line" d="M 216.2 606.0 L 226.2 606.0"/>
<rect class="rr-rule" x="226.2" y="594.0" width="104.3" height="24.0" rx="4.0"/>
<text class="rr-text" x="278.4" y="606.0">entity_name</text>
<path class="rr-line" d="M 330.5 606.0 L 340.5 606.0"/>
<path class="rr-line" d="M 330.5 606.0 a 10.0 10.0 0 0 1 10.0 10.0 v 12.0 a 10.0 10.0 0 0 1 -10.0 10.0 h -140.2 a 10.0 10.0 0 0 1 -10.0 -10.0 v -12.0 a 10.0 10.0 0 0 1 10.0 -10.0"/>
<path class="rr-line" d="M 340.5 606.0 L 360.5 606.0"/>
<path class="rr-line" d="M 140.3 606.0 a 10.0 10.0 0 0 1 10.0 10.0 v 38.0 a 10.0 10.0 0 0 0 10.0 10.0"/>
<path class="rr-line" d="M 340.5 664.0 a 10.0 10.0 0 0 0 10.0 -10.0 v -38.0 a 10.0 10.0 0 0 1 10.0 -10.0"/>
<path class="rr-line" d="M 160.3 664.0 L 233.4 664.0"/>
<path class="rr-line" d="M 233.4 664.0 L 267.4 664.0"/>
<path class="rr-line" d="M 267.4 664.0 L 340.5 664.0"/>
<path class="rr-line" d="M 360.5 606.0 L 786.5 606.0"/>
<circle class="rr-line" cx="16.0" cy="606.0" r="3"/>
<circle class="rr-line" cx="786.5" cy="606.0" r="3"/>
<text class="rr-title" x="16.0" y="716.0">entity_name</text>
<path class="rr-line" d="M 16.0 744.0 L 26.0 744.0"/>
<rect class="rr-rule" x="26.0" y="732.0" width="53.2" height="24.0" rx="4.0"/>
<text class="rr-text" x="52.6" y="744.0">name</text>
<path class="rr-line" d="M 79.2 744.0 L 786.5 744.0"/>
<circle class="rr-line" cx="16.0" cy="744.0" r="3"/>
<circle class="rr-line" cx="786.5" cy="744.0" r="3"/>
<text class="rr-title" x="16.0" y="796.0">attribs</text>
<path class="rr-line" d="M 16.0 824.0 L 26.0 824.0"/>
<rect class="rr-term" x="26.0" y="812.0" width="45.9" height="24.0" rx="12.0"/>
<text class="rr-text" x="49.0" y="824.0">"{"</text>
<path class="rr-line" d="M 71.9 824.0 L 81.9 824.0"/>
<path class="rr-line" d="M 81.9 824.0 L 101.9 824.0"/>
<rect class="rr-rule" x="101.9" y="812.0" width="67.8" height="24.0" rx="4.0"/>
<text class="rr-text" x="135.8" y="824.0">attrib</text>
<path class="rr-line" d="M 169.7 824.0 L 179.7 824.0"/>
<path class="rr-line" d="M 179.7 824.0 L 199.7 824.0"/>
<path class="rr-line" d="M 199.7 824.0 L 209.7 824.0"/>
<rect class="rr-term" x="209.7" y="812.0" width="45.9" height="24.0" rx="12.0"/>
<text class="rr-text" x="232.6" y="824.0">","</text>
<path class="rr-line" d="M 255.6 824.0 L 265.6 824.0"/>
<rect class="rr-rule" x="265.6" y="812.0" width="67.8" height="24.0" rx="4.0"/>
<text class="rr-text" x="299.5" y="824.0">attrib</text>
<path class="rr-line" d="M 333.4 824.0 L 343.4 824.0"/>
<path class="rr-line" d="M 333.4 824.0 a 10.0 10.0 0 0 1 10.0 10.0 v 12.0 a 10.0 10.0 0 0 1 -10.0 10.0 h -103.7 a 10.0 10.0 0 0 1 -10.0 -10.0 v -12.0 a 10.0 10.0 0 0 1 10.0 -10.0"/>
<path class="rr-line" d="M 343.4 824.0 L 363.4 824.0"/>
<path class="rr-line" d="M 179.7 824.0 a 10.0 10.0 0 0 1 10.0 10.0 v 38.0 a 10.0 10.0 0 0 0 10.0 10.0"/>
<path class="rr-line" d="M 343.4 882.0 a 10.0 10.0 0 0 0 10.0 -10.0 v -38.0 a 10.0 10.0 0 0 1 10.0 -10.0"/>
<path class="rr-line" d="M 199.7 882.0 L 254.5 882.0"/>
<path class="rr-line" d="M 254.5 882.0 L 288.5 882.0"/>
<path class="rr-line" d="M 288.5 882.0 L 343.4 882.0"/>
<path class="rr-line" d="M 363.4 824.0 L 373.4 824.0"/>
<rect class="rr-term" x="373.4" y="812.0" width="45.9" height="24.0" rx="12.0"/>
<text class="rr-text" x="396.3" y="824.0">","</text>
<path class="rr-line" d="M 419.3 824.0 L 439.3 824.0"/>
<path class="rr-line" d="M 81.9 824.0 a 10.0 10.0 0 0 1 10.0 10.0 v 72.0 a 10.0 10.0 0 0 0 10.0 10.0"/>
<path class="rr-line" d="M 419.3 916.0 a 10.0 10.0 0 0 0 10.0 -10.0 v -72.0 a 10.0 10.0 0 0 1 10.0 -10.0"/>
<path class="rr-line" d="M 101.9 916.0 L 243.6 916.0"/>
<path class="rr-line" d="M 243.6 916.0 L 277.6 916.0"/>
<path class="rr-line" d="M 277.6 916.0 L 419.3 916.0"/>
<path class="rr-line" d="M 439.3 824.0 L 449.3 824.0"/>
<rect class="rr-term" x="449.3" y="812.0" width="45.9" height="24.0" rx="12.0"/>
<text class="rr-text" x="472.2" y="824.0">"}"</text>
<path class="rr-line" d="M 495.2 824.0 L 786.5 824.0"/>
<circle class="rr-line" cx="16.0" cy="824.0" r="3"/>
<circle class="rr-line" cx="786.5" cy="824.0" r="3"/>
<text class="rr-title" x="16.0" y="968.0">attrib</text>
<path class="rr-line" d="M 16.0 996.0 L 26.0 996.0"/>
<rect class="rr-term" x="26.0" y="984.0" width="45.9" height="24.0" rx="12.0"/>
<text class="rr-text" x="49.0" y="996.0">"A"</text>
<path class="rr-line" d="M 71.9 996.0 L 81.9 996.0"/>
<rect class="rr-term" x="81.9" y="984.0" width="45.9" height="24.0" rx="12.0"/>
<text class="rr-text" x="104.9" y="996.0">":"</text>
<path class="rr-line" d="M 127.8 996.0 L 137.8 996.0"/>
<rect class="rr-rule" x="137.8" y="984.0" width="53.2" height="24.0" rx="4.0"/>
<text class="rr-text" x="164.4" y="996.0">name</text>
<path class="rr-line" d="M 191.0 996.0 L 201.0 996.0"/>
<path class="rr-line" d="M 201.0 996.0 L 221.0 996.0"/>
<rect class="rr-term" x="221.0" y="984.0" width="45.9" height="24.0" rx="12.0"/>
<text class="rr-text" x="243.9" y="996.0">"("</text>
<path class="rr-line" d="M 266.9 996.0 L 276.9 996.0"/>
<path class="rr-line" d="M 276.9 996.0 L 296.9 996.0"/>
<rect class="rr-rule" x="296.9" y="984.0" width="111.6" height="24.0" rx="4.0"/>
<text class="rr-text" x="352.7" y="996.0">attrib_names</text>
<path class="rr-line" d="M 408.5 996.0 L 428.5 996.0"/>
<path class="rr-line" d="M 276.9 996.0 a 10.0 10.0 0 0 1 10.0 10.0 v 14.0 a 10.0 10.0 0 0 0 10.0 10.0"/>
<path class="rr-line" d="M 408.5 1030.0 a 10.0 10.0 0 0 0 10.0 -10.0 v -14.0 a 10.0 10.0 0 0 1 10.0 -10.0"/>
<path class="rr-line" d="M 296.9 1030.0 L 335.7 1030.0"/>
<path class="rr-line" d="M 335.7 1030.0 L 369.7 1030.0"/>
<path class="rr-line" d="M 369.7 1030.0 L 408.5 1030.0"/>
<path class="rr-line" d="M 428.5 996.0 L 438.5 996.0"/>
<rect class="rr-term" x="438.5" y="984.0" width="45.9" height="24.0" rx="12.0"/>
<text class="rr-text" x="461.4" y="996.0">")"</text>
<path class="rr-line" d="M 484.4 996.0 L 504.4 996.0"/>
<path class="rr-line" d="M 201.0 996.0 a 10.0 10.0 0 0 1 10.0 10.0 v 48.0 a 10.0 10.0 0 0 0 10.0 10.0"/>
<path class="rr-line" d="M 484.4 1064.0 a 10.0 10.0 0 0 0 10.0 -10.0 v -48.0 a 10.0 10.0 0 0 1 10.0 -10.0"/>
<path class="rr-line" d="M 221.0 1064.0 L 335.7 1064.0"/>
<path class="rr-line" d="M 335.7 1064.0 L 369.7 1064.0"/>
<path class="rr-line" d="M 369.7 1064.0 L 484.4 1064.0"/>
<path class="rr-line" d="M 504.4 996.0 L 514.4 996.0"/>
<path class="rr-line" d="M 514.4 996.0 L 534.4 996.0"/>
<rect class="rr-rule" x="534.4" y="984.0" width="60.5" height="24.0" rx="4.0"/>
<text class="rr-text" x="564.6" y="996.0">atype</text>
<path class="rr-line" d="M 594.9 996.0 L 614.9 996.0"/>
<path class="rr-line" d="M 514.4 996.0 a 10.0 10.0 0 0 1 10.0 10.0 v 14.0 a 10.0 10.0 0 0 0 10.0 10.0"/>
<path class="rr-line" d="M 594.9 1030.0 a 10.0 10.0 0 0 0 10.0 -10.0 v -14.0 a 10.0 10.0 0 0 1 10.0 -10.0"/>
<path class="rr-line" d="M 534.4 1030.0 L 547.6 1030.0"/>
<path class="rr-line" d="M 547.6 1030.0 L 581.6 1030.0"/>
<path class="rr-line" d="M 581.6 1030.0 L 594.9 1030.0"/>
<path class="rr-line" d="M 614.9 996.0 L 624.9 996.0"/>
<path class="rr-line" d="M 624.9 996.0 L 644.9 996.0"/>
<rect class="rr-rule" x="644.9" y="984.0" width="97.0" height="24.0" rx="4.0"/>
<text class="rr-text" x="693.4" y="996.0">validators</text>
<path class="rr-line" d="M 741.9 996.0 L 761.9 996.0"/>
<path class="rr-line" d="M 624.9 996.0 a 10.0 10.0 0 0 1 10.0 10.0 v 14.0 a 10.0 10.0 0 0 0 10.0 10.0"/>
<path class="rr-line" d="M 741.9 1030.0 a 10.0 10.0 0 0 0 10.0 -10.0 v -14.0 a 10.0 10.0 0 0 1 10.0 -10.0"/>
<path class="rr-line" d="M 644.9 1030.0 L 676.4 1030.0"/>
<path class="rr-line" d="M 676.4 1030.0 L 710.4 1030.0"/>
<path class="rr-line" d="M 710.4 1030.0 L 741.9 1030.0"/>
<path class="rr-line" d="M 761.9 996.0 L 786.5 996.0"/>
<circle class="rr-line" cx="16.0" cy="996.0" r="3"/>
<circle class="rr-line" cx="786.5" cy="996.0" r="3"/>
<text class="rr-title" x="16.0" y="1116.0">attrib_names</text>
<path class="rr-line" d="M 16.0 1144.0 L 26.0 1144.0"/>
<rect class="rr-rule" x="26.0" y="1132.0" width="104.3" height="24.0" rx="4.0"/>
<text class="rr-text" x="78.2" y="1144.0">attrib_name</text>
<path class="rr-line" d="M 130.3 1144.0 L 140.3 1144.0"/>
<path class="rr-line" d="M 140.3 1144.0 L 160.3 1144.0"/>
<path class="rr-line" d="M 160.3 1144.0 L 170.3 1144.0"/>
<rect class="rr-term" x="170.3" y="1132.0" width="45.9" height="24.0" rx="12.0"/>
<text class="rr-text" x="193.2" y="1144.0">","</text>
<path class="rr-line" d="M 216.2 1144.0 L 226.2 1144.0"/>
<rect class="rr-rule" x="226.2" y="1132.0" width="104.3" height="24.0" rx="4.0"/>
<text class="rr-text" x="278.4" y="1144.0">attrib_name</text>
<path class="rr-line" d="M 330.5 1144.0 L 340.5 1144.0"/>
<path class="rr-line" d="M 330.5 1144.0 a 10.0 10.0 0 0 1 10.0 10.0 v 12.0 a 10.0 10.0 0 0 1 -10.0 10.0 h -140.2 a 10.0 10.0 0 0 1 -10.0 -10.0 v -12.0 a 10.0 10.0 0 0 1 10.0 -10.0"/>
<path class="rr-line" d="M 340.5 1144.0 L 360.5 1144.0"/>
<path class="rr-line" d="M 140.3 1144.0 a 10.0 10.0 0 0 1 10.0 10.0 v 38.0 a 10.0 10.0 0 0 0 10.0 10.0"/>
<path class="rr-line" d="M 340.5 1202.0 a 10.0 10.0 0 0 0 10.0 -10.0 v -38.0 a 10.0 10.0 0 0 1 10.0 -10.0"/>
<path class="rr-line" d="M 160.3 1202.0 L 233.4 1202.0"/>
<path class="rr-line" d="M 233.4 1202.0 L 267.4 1202.0"/>
<path class="rr-line" d="M 267.4 1202.0 L 340.5 1202.0"/>
<path class="rr-line" d="M 360.5 1144.0 L 786.5 1144.0"/>
<circle class="rr-line" cx="16.0" cy="1144.0" r="3"/>
<circle class="rr-line" cx="786.5" cy="1144.0" r="3"/>
<text class="rr-title" x="16.0" y="1254.0">attrib_name</text>
<path class="rr-line" d="M 16.0 1282.0 L 26.0 1282.0"/>
<rect class="rr-rule" x="26.0" y="1270.0" width="53.2" height="24.0" rx="4.0"/>
<text class="rr-text" x="52.6" y="1282.0">name</text>
<path class="rr-line" d="M 79.2 1282.0 L 786.5 1282.0"/>
<circle class="rr-line" cx="16.0" cy="1282.0" r="3"/>
<circle class="rr-line" cx="786.5" cy="1282.0" r="3"/>
<text class="rr-title" x="16.0" y="1334.0">atype</text>
<path class="rr-line" d="M 16.0 1362.0 L 26.0 1362.0"/>
<rect class="rr-term" x="26.0" y="1350.0" width="45.9" height="24.0" rx="12.0"/>
<text class="rr-text" x="49.0" y="1362.0">"T"</text>
<path class="rr-line" d="M 71.9 1362.0 L 81.9 1362.0"/>
<rect class="rr-term" x="81.9" y="1350.0" width="45.9" height="24.0" rx="12.0"/>
<text class="rr-text" x="104.9" y="1362.0">":"</text>
<path class="rr-line" d="M 127.8 1362.0 L 137.8 1362.0"/>
<rect class="rr-rule" x="137.8" y="1350.0" width="53.2" height="24.0" rx="4.0"/>
<text class="rr-text" x="164.4" y="1362.0">name</text>
<path class="rr-line" d="M 191.0 1362.0 L 201.0 1362.0"/>
<path class="rr-line" d="M 201.0 1362.0 L 221.0 1362.0"/>
<rect class="rr-term" x="221.0" y="1350.0" width="45.9" height="24.0" rx="12.0"/>
<text class="rr-text" x="243.9" y="1362.0">"("</text>
<path class="rr-line" d="M 266.9 1362.0 L 276.9 1362.0"/>
<path class="rr-line" d="M 276.9 1362.0 L 296.9 1362.0"/>
<rect class="rr-rule" x="296.9" y="1350.0" width="104.3" height="24.0" rx="4.0"/>
<text class="rr-text" x="349.0" y="1362.0">atype_names</text>
<path class="rr-line" d="M 401.2 1362.0 L 421.2 1362.0"/>
<path class="rr-line" d="M 276.9 1362.0 a 10.0 10.0 0 0 1 10.0 10.0 v 14.0 a 10.0 10.0 0 0 0 10.0 10.0"/>
<path class="rr-line" d="M 401.2 1396.0 a 10.0 10.0 0 0 0 10.0 -10.0 v -14.0 a 10.0 10.0 0 0 1 10.0 -10.0"/>
<path class="rr-line" d="M 296.9 1396.0 L 332.0 1396.0"/>
<path class="rr-line" d="M 332.0 1396.0 L 366.0 1396.0"/>
<path class="rr-line" d="M 366.0 1396.0 L 401.2 1396.0"/>
<path class="rr-line" d="M 421.2 1362.0 L 431.2 1362.0"/>
<rect class="rr-term" x="431.2" y="1350.0" width="45.9" height="24.0" rx="12.0"/>
<text class="rr-text" x="454.1" y="1362.0">")"</text>
<path class="rr-line" d="M 477.1 1362.0 L 497.1 1362.0"/>
<path class="rr-line" d="M 201.0 1362.0 a 10.0 10.0 0 0 1 10.0 10.0 v 48.0 a 10.0 10.0 0 0 0 10.0 10.0"/>
<path class="rr-line" d="M 477.1 1430.0 a 10.0 10.0 0 0 0 10.0 -10.0 v -48.0 a 10.0 10.0 0 0 1 10.0 -10.0"/>
<path class="rr-line" d="M 221.0 1430.0 L 332.1 1430.0"/>
<path class="rr-line" d="M 332.1 1430.0 L 366.1 1430.0"/>
<path class="rr-line" d="M 366.1 1430.0 L 477.1 1430.0"/>
<path class="rr-line" d="M 497.1 1362.0 L 786.5 1362.0"/>
<circle class="rr-line" cx="16.0" cy="1362.0" r="3"/>
<circle class="rr-line" cx="786.5" cy="1362.0" r="3"/>
<text class="rr-title" x="16.0" y="1482.0">atype_names</text>
<path class="rr-line" d="M 16.0 1510.0 L 26.0 1510.0"/>
<rect class="rr-rule" x="26.0" y="1498.0" width="97.0" height="24.0" rx="4.0"/>
<text class="rr-text" x="74.5" y="1510.0">atype_name</text>
<path class="rr-line" d="M 123.0 1510.0 L 133.0 1510.0"/>
<path class="rr-line" d="M 133.0 1510.0 L 153.0 1510.0"/>
<path class="rr-line" d="M 153.0 1510.0 L 163.0 1510.0"/>
<rect class="rr-term" x="163.0" y="1498.0" width="45.9" height="24.0" rx="12.0"/>
<text class="rr-text" x="185.9" y="1510.0">","</text>
<path class="rr-line" d="M 208.9 1510.0 L 218.9 1510.0"/>
<rect class="rr-rule" x="218.9" y="1498.0" width="97.0" height="24.0" rx="4.0"/>
<text class="rr-text" x="267.4" y="1510.0">atype_name</text>
<path class="rr-line" d="M 315.9 1510.0 L 325.9 1510.0"/>
<path class="rr-line" d="M 315.9 1510.0 a 10.0 10.0 0 0 1 10.0 10.0 v 12.0 a 10.0 10.0 0 0 1 -10.0 10.0 h -132.9 a 10.0 10.0 0 0 1 -10.0 -10.0 v -12.0 a 10.0 10.0 0 0 1 10.0 -10.0"/>
<path class="rr-line" d="M 325.9 1510.0 L 345.9 1510.0"/>
<path class="rr-line" d="M 133.0 1510.0 a 10.0 10.0 0 0 1 10.0 10.0 v 38.0 a 10.0 10.0 0 0 0 10.0 10.0"/>
<path class="rr-line" d="M 325.9 1568.0 a 10.0 10.0 0 0 0 10.0 -10.0 v -38.0 a 10.0 10.0 0 0 1 10.0 -10.0"/>
<path class="rr-line" d="M 153.0 1568.0 L 222.4 1568.0"/>
<path class="rr-line" d="M 222.4 1568.0 L 256.4 1568.0"/>
<path class="rr-line" d="M 256.4 1568.0 L 325.9 1568.0"/>
<path class="rr-line" d="M 345.9 1510.0 L 786.5 1510.0"/>
<circle class="rr-line" cx="16.0" cy="1510.0" r="3"/>
<circle class="rr-line" cx="786.5" cy="1510.0" r="3"/>
<text class="rr-title" x="16.0" y="1620.0">atype_name</text>
<path class="rr-line" d="M 16.0 1648.0 L 26.0 1648.0"/>
<rect class="rr-rule" x="26.0" y="1636.0" width="53.2" height="24.0" rx="4.0"/>
<text class="rr-text" x="52.6" y="1648.0">name</text>
<path class="rr-line" d="M 79.2 1648.0 L 786.5 1648.0"/>
<circle class="rr-line" cx="16.0" cy="1648.0" r="3"/>
<circle class="rr-line" cx="786.5" cy="1648.0" r="3"/>
<text class="rr-title" x="16.0" y="1700.0">validators</text>
<path class="rr-line" d="M 16.0 1728.0 L 26.0 1728.0"/>
<rect class="rr-term" x="26.0" y="1716.0" width="45.9" height="24.0" rx="12.0"/>
<text class="rr-text" x="49.0" y="1728.0">"{"</text>
<path class="rr-line" d="M 71.9 1728.0 L 81.9 1728.0"/>
<rect class="rr-rule" x="81.9" y="1716.0" width="89.7" height="24.0" rx="4.0"/>
<text class="rr-text" x="126.8" y="1728.0">validator</text>
<path class="rr-line" d="M 171.6 1728.0 L 181.6 1728.0"/>
<path class="rr-line" d="M 181.6 1728.0 L 201.6 1728.0"/>
<path class="rr-line" d="M 201.6 1728.0 L 211.6 1728.0"/>
<rect class="rr-term" x="211.6" y="1716.0" width="45.9" height="24.0" rx="12.0"/>
<text class="rr-text" x="234.6" y="1728.0">","</text>
<path class="rr-line" d="M 257.5 1728.0 L 267.5 1728.0"/>
<rect class="rr-rule" x="267.5" y="1716.0" width="89.7" height="24.0" rx="4.0"/>
<text class="rr-text" x="312.4" y="1728.0">validator</text>
<path class="rr-line" d="M 357.2 1728.0 L 367.2 1728.0"/>
<path class="rr-line" d="M 357.2 1728.0 a 10.0 10.0 0 0 1 10.0 10.0 v 12.0 a 10.0 10.0 0 0 1 -10.0 10.0 h -125.6 a 10.0 10.0 0 0 1 -10.0 -10.0 v -12.0 a 10.0 10.0 0 0 1 10.0 -10.0"/>
<path class="rr-line" d="M 367.2 1728.0 L 387.2 1728.0"/>
<path class="rr-line" d="M 181.6 1728.0 a 10.0 10.0 0 0 1 10.0 10.0 v 38.0 a 10.0 10.0 0 0 0 10.0 10.0"/>
<path class="rr-line" d="M 367.2 1786.0 a 10.0 10.0 0 0 0 10.0 -10.0 v -38.0 a 10.0 10.0 0 0 1 10.0 -10.0"/>
<path class="rr-line" d="M 201.6 1786.0 L 267.4 1786.0"/>
<path class="rr-line" d="M 267.4 1786.0 L 301.4 1786.0"/>
<path class="rr-line" d="M 301.4 1786.0 L 367.2 1786.0"/>
<path class="rr-line" d="M 387.2 1728.0 L 397.2 1728.0"/>
<path class="rr-line" d="M 397.2 1728.0 L 417.2 1728.0"/>
<rect class="rr-term" x="417.2" y="1716.0" width="45.9" height="24.0" rx="12.0"/>
<text class="rr-text" x="440.2" y="1728.0">","</text>
<path class="rr-line" d="M 463.1 1728.0 L 483.1 1728.0"/>
<path class="rr-line" d="M 397.2 1728.0 a 10.0 10.0 0 0 1 10.0 10.0 v 14.0 a 10.0 10.0 0 0 0 10.0 10.0"/>
<path class="rr-line" d="M 463.1 1762.0 a 10.0 10.0 0 0 0 10.0 -10.0 v -14.0 a 10.0 10.0 0 0 1 10.0 -10.0"/>
<path class="rr-line" d="M 417.2 1762.0 L 423.2 1762.0"/>
<path class="rr-line" d="M 423.2 1762.0 L 457.2 1762.0"/>
<path class="rr-line" d="M 457.2 1762.0 L 463.1 1762.0"/>
<path class="rr-line" d="M 483.1 1728.0 L 493.1 1728.0"/>
<rect class="rr-term" x="493.1" y="1716.0" width="45.9" height="24.0" rx="12.0"/>
<text class="rr-text" x="516.1" y="1728.0">"}"</text>
<path class="rr-line" d="M 539.0 1728.0 L 786.5 1728.0"/>
<circle class="rr-line" cx="16.0" cy="1728.0" r="3"/>
<circle class="rr-line" cx="786.5" cy="1728.0" r="3"/>
<text class="rr-title" x="16.0" y="1838.0">validator</text>
<path class="rr-line" d="M 16.0 1866.0 L 26.0 1866.0"/>
<rect class="rr-term" x="26.0" y="1854.0" width="45.9" height="24.0" rx="12.0"/>
<text class="rr-text" x="49.0" y="1866.0">"V"</text>
<path class="rr-line" d="M 71.9 1866.0 L 81.9 1866.0"/>
<rect class="rr-term" x="81.9" y="1854.0" width="45.9" height="24.0" rx="12.0"/>
<text class="rr-text" x="104.9" y="1866.0">":"</text>
<path class="rr-line" d="M 127.8 1866.0 L 137.8 1866.0"/>
<rect class="rr-rule" x="137.8" y="1854.0" width="53.2" height="24.0" rx="4.0"/>
<text class="rr-text" x="164.4" y="1866.0">name</text>
<path class="rr-line" d="M 191.0 1866.0 L 201.0 1866.0"/>
<path class="rr-line" d="M 201.0 1866.0 L 221.0 1866.0"/>
<rect class="rr-term" x="221.0" y="1854.0" width="45.9" height="24.0" rx="12.0"/>
<text class="rr-text" x="243.9" y="1866.0">"("</text>
<path class="rr-line" d="M 266.9 1866.0 L 276.9 1866.0"/>
<path class="rr-line" d="M 276.9 1866.0 L 296.9 1866.0"/>
<rect class="rr-rule" x="296.9" y="1854.0" width="133.5" height="24.0" rx="4.0"/>
<text class="rr-text" x="363.6" y="1866.0">validator_names</text>
<path class="rr-line" d="M 430.4 1866.0 L 450.4 1866.0"/>
<path class="rr-line" d="M 276.9 1866.0 a 10.0 10.0 0 0 1 10.0 10.0 v 14.0 a 10.0 10.0 0 0 0 10.0 10.0"/>
<path class="rr-line" d="M 430.4 1900.0 a 10.0 10.0 0 0 0 10.0 -10.0 v -14.0 a 10.0 10.0 0 0 1 10.0 -10.0"/>
<path class="rr-line" d="M 296.9 1900.0 L 346.6 1900.0"/>
<path class="rr-line" d="M 346.6 1900.0 L 380.6 1900.0"/>
<path class="rr-line" d="M 380.6 1900.0 L 430.4 1900.0"/>
<path class="rr-line" d="M 450.4 1866.0 L 460.4 1866.0"/>
<rect class="rr-term" x="460.4" y="1854.0" width="45.9" height="24.0" rx="12.0"/>
<text class="rr-text" x="483.3" y="1866.0">")"</text>
<path class="rr-line" d="M 506.3 1866.0 L 526.3 1866.0"/>
<path class="rr-line" d="M 201.0 1866.0 a 10.0 10.0 0 0 1 10.0 10.0 v 48.0 a 10.0 10.0 0 0 0 10.0 10.0"/>
<path class="rr-line" d="M 506.3 1934.0 a 10.0 10.0 0 0 0 10.0 -10.0 v -48.0 a 10.0 10.0 0 0 1 10.0 -10.0"/>
<path class="rr-line" d="M 221.0 1934.0 L 346.6 1934.0"/>
<path class="rr-line" d="M 346.6 1934.0 L 380.6 1934.0"/>
<path class="rr-line" d="M 380.6 1934.0 L 506.3 1934.0"/>
<path class="rr-line" d="M 526.3 1866.0 L 786.5 1866.0"/>
<circle class="rr-line" cx="16.0" cy="1866.0" r="3"/>
<circle class="rr-line" cx="786.5" cy="1866.0" r="3"/>
<text class="rr-title" x="16.0" y="1986.0">validator_names</text>
<path class="rr-line" d="M 16.0 2014.0 L 26.0 2014.0"/>
<rect class="rr-rule" x="26.0" y="2002.0" width="126.2" height="24.0" rx="4.0"/>
<text class="rr-text" x="89.1" y="2014.0">validator_name</text>
<path class="rr-line" d="M 152.2 2014.0 L 162.2 2014.0"/>
<path class="rr-line" d="M 162.2 2014.0 L 182.2 2014.0"/>
<path class="rr-line" d="M 182.2 2014.0 L 192.2 2014.0"/>
<rect class="rr-term" x="192.2" y="2002.0" width="45.9" height="24.0" rx="12.0"/>
<text class="rr-text" x="215.1" y="2014.0">","</text>
<path class="rr-line" d="M 238.1 2014.0 L 248.1 2014.0"/>
<rect class="rr-rule" x="248.1" y="2002.0" width="126.2" height="24.0" rx="4.0"/>
<text class="rr-text" x="311.2" y="2014.0">validator_name</text>
<path class="rr-line" d="M 374.3 2014.0 L 384.3 2014.0"/>
<path class="rr-line" d="M 374.3 2014.0 a 10.0 10.0 0 0 1 10.0 10.0 v 12.0 a 10.0 10.0 0 0 1 -10.0 10.0 h -162.1 a 10.0 10.0 0 0 1 -10.0 -10.0 v -12.0 a 10.0 10.0 0 0 1 10.0 -10.0"/>
<path class="rr-line" d="M 384.3 2014.0 L 404.3 2014.0"/>
<path class="rr-line" d="M 162.2 2014.0 a 10.0 10.0 0 0 1 10.0 10.0 v 38.0 a 10.0 10.0 0 0 0 10.0 10.0"/>
<path class="rr-line" d="M 384.3 2072.0 a 10.0 10.0 0 0 0 10.0 -10.0 v -38.0 a 10.0 10.0 0 0 1 10.0 -10.0"/>
<path class="rr-line" d="M 182.2 2072.0 L 266.2 2072.0"/>
<path class="rr-line" d="M 266.2 2072.0 L 300.2 2072.0"/>
<path class="rr-line" d="M 300.2 2072.0 L 384.3 2072.0"/>
<path class="rr-line" d="M 404.3 2014.0 L 786.5 2014.0"/>
<circle class="rr-line" cx="16.0" cy="2014.0" r="3"/>
<circle class="rr-line" cx="786.5" cy="2014.0" r="3"/>
<text class="rr-title" x="16.0" y="2124.0">validator_name</text>
<path class="rr-line" d="M 16.0 2152.0 L 26.0 2152.0"/>
<rect class="rr-rule" x="26.0" y="2140.0" width="53.2" height="24.0" rx="4.0"/>
<text class="rr-text" x="52.6" y="2152.0">name</text>
<path class="rr-line" d="M 79.2 2152.0 L 786.5 2152.0"/>
<circle class="rr-line" cx="16.0" cy="2152.0" r="3"/>
<circle class="rr-line" cx="786.5" cy="2152.0" r="3"/>
<text class="rr-title" x="16.0" y="2204.0">?name</text>
<path class="rr-line" d="M 16.0 2232.0 L 26.0 2232.0"/>
<rect class="rr-term" x="26.0" y="2220.0" width="60.5" height="24.0" rx="12.0"/>
<text class="rr-text" x="56.2" y="2232.0">CNAME</text>
<path class="rr-line" d="M 86.5 2232.0 L 786.5 2232.0"/>
<circle class="rr-line" cx="16.0" cy="2232.0" r="3"/>
<circle class="rr-line" cx="786.5" cy="2232.0" r="3"/>
</svg>
